<svg id="visual" viewBox="0 0 900 600" width="900" height="600" xmlns="http://www.w3.org/2000/svg" xmlns:xlink="http://www.w3.org/1999/xlink" version="1.1"><g transform="translate(9.478012332030687 -55.59544964104333)"><path d="M290.5 -485.9C373.4 -455.4 435.2 -371.2 497.6 -281.3C560.1 -191.3 623 -95.7 648.4 14.7C673.8 125 661.7 250 586.4 317.7C511.1 385.3 372.8 395.6 264.5 457.6C156.3 519.6 78.1 633.3 -6 643.7C-90.2 654.2 -180.3 561.3 -279.5 494.1C-378.7 426.8 -486.8 385.2 -561.4 307.1C-636 229 -677 114.5 -679.3 -1.3C-681.6 -117.2 -645.2 -234.3 -582 -332C-518.7 -429.8 -428.6 -508 -327.1 -527.8C-225.7 -547.5 -112.8 -508.8 -4.5 -501C103.8 -493.2 207.7 -516.4 290.5 -485.9" fill="#8D72E1"></path></g></svg>